<svg width="24" height="24" viewBox="0 0 24 24" fill="none" xmlns="http://www.w3.org/2000/svg">
<path fill-rule="evenodd" clip-rule="evenodd" d="M12 4.07812C12.6472 4.07812 13.1719 4.60279 13.1719 5.25V10.8281H18.75C19.3972 10.8281 19.9219 11.3528 19.9219 12C19.9219 12.6472 19.3972 13.1719 18.75 13.1719H13.1719V18.75C13.1719 19.3972 12.6472 19.9219 12 19.9219C11.3528 19.9219 10.8281 19.3972 10.8281 18.75V13.1719H5.25C4.60279 13.1719 4.07812 12.6472 4.07812 12C4.07812 11.3528 4.60279 10.8281 5.25 10.8281H10.8281V5.25C10.8281 4.60279 11.3528 4.07812 12 4.07812Z" fill="black"/>
</svg>
