<svg width="600" height="600" viewBox="0 0 600 600" fill="none" xmlns="http://www.w3.org/2000/svg">
<path opacity="0.08" d="M81.517 200.508C81.517 200.508 48.061 286.908 95.077 373.908C142.093 460.908 238.933 506.868 316.441 546.168C393.949 585.468 474.433 566.328 512.677 501.96C550.921 437.592 498.469 391.644 498.397 299.856C498.325 208.068 512.137 183.768 462.397 106.224C412.657 28.6799 290.725 11.5079 198.517 69.0239C106.309 126.54 81.517 200.508 81.517 200.508Z" fill="white"/>
<path d="M50.3906 517.992H552.375" stroke="#353535" stroke-linecap="round" stroke-linejoin="round"/>
<path d="M334.797 136.068V117.228L320.685 116.028C319.86 113.082 318.692 110.242 317.205 107.568L326.313 96.7679L312.993 83.4479L302.193 92.5559C299.542 91.0632 296.722 89.891 293.793 89.0639L292.593 74.9519H273.597L272.397 89.0639C269.469 89.891 266.649 91.0632 263.997 92.5559L253.197 83.4479L239.877 96.7679L248.985 107.568C247.498 110.242 246.33 113.082 245.505 116.028L231.393 117.228V136.068L245.505 137.268C246.335 140.194 247.502 143.013 248.985 145.668L239.877 156.468L253.197 169.788L263.997 160.68C266.649 162.173 269.469 163.345 272.397 164.172L273.597 178.284H292.437L293.637 164.172C296.585 163.346 299.425 162.174 302.097 160.68L312.897 169.788L326.217 156.468L317.109 145.668C318.592 143.013 319.76 140.194 320.589 137.268L334.797 136.068ZM283.077 148.536C278.748 148.536 274.516 147.252 270.917 144.847C267.317 142.442 264.512 139.024 262.855 135.024C261.199 131.025 260.765 126.624 261.61 122.378C262.454 118.132 264.539 114.232 267.6 111.171C270.661 108.11 274.561 106.025 278.807 105.181C283.053 104.336 287.454 104.77 291.453 106.426C295.453 108.083 298.871 110.888 301.276 114.488C303.682 118.087 304.965 122.319 304.965 126.648C304.964 129.526 304.395 132.375 303.291 135.033C302.188 137.691 300.571 140.106 298.534 142.139C296.497 144.171 294.079 145.783 291.418 146.88C288.758 147.978 285.907 148.541 283.029 148.536H283.077Z" stroke="white" stroke-linecap="round" stroke-linejoin="round"/>
<path d="M537.227 320.208V311.184L530.459 310.596C530.061 309.184 529.501 307.823 528.791 306.54L533.159 301.344L526.799 294.96L521.615 299.328C520.334 298.613 518.973 298.053 517.559 297.66L516.971 290.892H507.935L507.359 297.66C505.945 298.051 504.583 298.611 503.303 299.328L498.107 294.96L491.723 301.344L496.091 306.54C495.372 307.821 494.808 309.182 494.411 310.596L487.643 311.184V320.208L494.411 320.796C494.808 322.21 495.372 323.571 496.091 324.852L491.687 330L498.071 336.384L503.267 332.016C504.547 332.733 505.909 333.293 507.323 333.684L507.899 340.452H516.935L517.523 333.684C518.937 333.291 520.298 332.731 521.579 332.016L526.763 336.384L533.159 330L528.791 324.804C529.501 323.52 530.061 322.16 530.459 320.748L537.227 320.208ZM512.423 326.208C510.346 326.21 508.315 325.597 506.586 324.444C504.858 323.292 503.51 321.653 502.714 319.734C501.917 317.816 501.708 315.704 502.111 313.667C502.515 311.629 503.514 309.757 504.982 308.288C506.45 306.818 508.321 305.817 510.358 305.411C512.395 305.004 514.507 305.212 516.427 306.006C518.346 306.8 519.987 308.146 521.141 309.873C522.295 311.6 522.911 313.631 522.911 315.708C522.91 317.087 522.636 318.452 522.107 319.725C521.578 320.999 520.803 322.155 519.827 323.129C518.851 324.103 517.693 324.875 516.418 325.401C515.144 325.928 513.778 326.198 512.399 326.196L512.423 326.208Z" stroke="white" stroke-linecap="round" stroke-linejoin="round"/>
<path d="M530.399 155.76C531.357 151.613 531.225 147.288 530.014 143.207C528.803 139.127 526.556 135.429 523.491 132.475C520.426 129.522 516.648 127.413 512.526 126.353C508.403 125.294 504.076 125.321 499.967 126.432C497.464 121.993 493.593 118.482 488.931 116.422C484.27 114.362 479.068 113.863 474.1 115C469.132 116.138 464.665 118.85 461.364 122.733C458.063 126.616 456.106 131.462 455.783 136.548C453.171 136.048 450.484 136.094 447.891 136.682C445.297 137.271 442.853 138.389 440.712 139.966C438.571 141.544 436.78 143.547 435.45 145.85C434.12 148.152 433.28 150.705 432.983 153.348C430.309 153.629 427.835 154.899 426.047 156.907C424.258 158.916 423.284 161.52 423.314 164.209C423.344 166.899 424.376 169.48 426.209 171.448C428.042 173.417 430.543 174.63 433.223 174.852H523.559C525.771 174.836 527.925 174.141 529.729 172.861C531.533 171.58 532.901 169.777 533.647 167.695C534.393 165.612 534.482 163.351 533.901 161.216C533.32 159.082 532.098 157.177 530.399 155.76Z" stroke="white" stroke-linecap="round" stroke-linejoin="round"/>
<path d="M480.755 166.596V191.496" stroke="white" stroke-linecap="round" stroke-linejoin="round"/>
<path d="M480.755 151.668V161.616" stroke="white" stroke-linecap="round" stroke-linejoin="round"/>
<path d="M480.755 142.356V147.684" stroke="white" stroke-linecap="round" stroke-linejoin="round"/>
<path d="M476.051 188.592L480.755 194.412L485.459 188.592" stroke="white" stroke-linecap="round" stroke-linejoin="round"/>
<path d="M255.168 447.78C256.123 443.632 255.988 439.307 254.775 435.227C253.563 431.147 251.314 427.45 248.249 424.497C245.183 421.544 241.405 419.435 237.282 418.375C233.16 417.316 228.833 417.342 224.724 418.452C222.223 414.01 218.352 410.495 213.689 408.434C209.027 406.372 203.823 405.874 198.854 407.013C193.885 408.152 189.417 410.868 186.119 414.755C182.82 418.642 180.867 423.492 180.552 428.58C179.365 428.353 178.16 428.236 176.952 428.232C172.204 428.228 167.622 429.974 164.08 433.135C160.539 436.296 158.286 440.651 157.752 445.368C155.077 445.648 152.603 446.916 150.813 448.924C149.024 450.931 148.048 453.534 148.077 456.224C148.105 458.913 149.136 461.495 150.968 463.464C152.799 465.433 155.299 466.649 157.98 466.872H248.4C250.609 466.848 252.757 466.148 254.556 464.865C256.354 463.582 257.716 461.779 258.458 459.698C259.199 457.617 259.285 455.359 258.703 453.228C258.121 451.097 256.9 449.195 255.204 447.78H255.168Z" stroke="white" stroke-linecap="round" stroke-linejoin="round"/>
<path d="M205.485 462.18V437.292" stroke="white" stroke-linecap="round" stroke-linejoin="round"/>
<path d="M205.485 477.12V467.16" stroke="white" stroke-linecap="round" stroke-linejoin="round"/>
<path d="M205.485 486.431V481.104" stroke="white" stroke-linecap="round" stroke-linejoin="round"/>
<path d="M210.193 440.196L205.489 434.376L200.785 440.196" stroke="white" stroke-linecap="round" stroke-linejoin="round"/>
<path d="M64.1769 131.88H365.917C367.266 131.88 368.56 132.416 369.514 133.37C370.469 134.324 371.005 135.618 371.005 136.968V151.2H59.0889V136.968C59.0889 135.618 59.6249 134.324 60.5791 133.37C61.5333 132.416 62.8275 131.88 64.1769 131.88Z" fill="#F1F1F1" stroke="#181818" stroke-linecap="round" stroke-linejoin="round"/>
<path d="M387.996 154.763H72.7437V376.607H387.996V154.763Z" fill="#5F5F5F" stroke="#181818" stroke-linecap="round" stroke-linejoin="round"/>
<path d="M392.823 141.528C392.823 142.477 392.541 143.405 392.014 144.194C391.487 144.984 390.737 145.599 389.86 145.962C388.983 146.325 388.018 146.421 387.086 146.235C386.155 146.05 385.3 145.593 384.629 144.922C383.957 144.25 383.5 143.395 383.315 142.464C383.13 141.533 383.225 140.568 383.588 139.691C383.952 138.814 384.567 138.064 385.356 137.536C386.145 137.009 387.074 136.728 388.023 136.728C389.296 136.728 390.517 137.233 391.417 138.133C392.317 139.034 392.823 140.255 392.823 141.528Z" fill="white" stroke="#181818" stroke-linecap="round" stroke-linejoin="round"/>
<path d="M375.828 141.528C375.828 142.477 375.546 143.405 375.019 144.195C374.491 144.984 373.742 145.599 372.865 145.963C371.988 146.326 371.023 146.421 370.091 146.236C369.16 146.05 368.305 145.593 367.634 144.922C366.962 144.251 366.505 143.395 366.32 142.464C366.135 141.533 366.23 140.568 366.593 139.691C366.957 138.814 367.572 138.064 368.361 137.537C369.15 137.009 370.079 136.728 371.028 136.728C372.301 136.728 373.522 137.234 374.422 138.134C375.322 139.034 375.828 140.255 375.828 141.528Z" fill="white" stroke="#181818" stroke-linecap="round" stroke-linejoin="round"/>
<path d="M358.799 141.528C358.799 142.477 358.518 143.405 357.99 144.195C357.463 144.984 356.713 145.599 355.836 145.963C354.959 146.326 353.994 146.421 353.063 146.236C352.132 146.05 351.276 145.593 350.605 144.922C349.934 144.251 349.477 143.395 349.292 142.464C349.106 141.533 349.201 140.568 349.565 139.691C349.928 138.814 350.543 138.064 351.333 137.537C352.122 137.009 353.05 136.728 353.999 136.728C355.272 136.728 356.493 137.234 357.393 138.134C358.294 139.034 358.799 140.255 358.799 141.528Z" fill="white" stroke="#181818" stroke-linecap="round" stroke-linejoin="round"/>
<path d="M378.444 164.281H365.964" stroke="#181818" stroke-width="2" stroke-linecap="round" stroke-linejoin="round"/>
<path d="M378.444 169.343H365.964" stroke="#181818" stroke-width="2" stroke-linecap="round" stroke-linejoin="round"/>
<path d="M378.444 174.407H365.964" stroke="#181818" stroke-width="2" stroke-linecap="round" stroke-linejoin="round"/>
<path d="M94.5737 295.176H189.05" stroke="#181818" stroke-width="2" stroke-linecap="round" stroke-linejoin="round"/>
<path d="M94.5737 302.628H189.05" stroke="#181818" stroke-width="2" stroke-linecap="round" stroke-linejoin="round"/>
<path d="M94.5737 310.212H169.07" stroke="#181818" stroke-width="2" stroke-linecap="round" stroke-linejoin="round"/>
<path d="M294.912 157.26V157.86" stroke="#181818" stroke-linecap="round" stroke-linejoin="round"/>
<path d="M294.912 161.46V370.536" stroke="#181818" stroke-linecap="round" stroke-linejoin="round" stroke-dasharray="1 3"/>
<path d="M294.912 372.335V372.935" stroke="#181818" stroke-linecap="round" stroke-linejoin="round"/>
<path d="M76.5366 326.856H77.1366" stroke="#181818" stroke-linecap="round" stroke-linejoin="round"/>
<path d="M80.7261 326.856H380.774" stroke="#181818" stroke-linecap="round" stroke-linejoin="round" stroke-dasharray="1 2.99"/>
<path d="M382.572 326.856H383.172" stroke="#181818" stroke-linecap="round" stroke-linejoin="round"/>
<path d="M296.988 324.78H292.848V328.92H296.988V324.78Z" fill="white" stroke="#181818" stroke-linecap="round" stroke-linejoin="round"/>
<path d="M278.391 287.088H223.119" stroke="#181818" stroke-linecap="round" stroke-linejoin="round"/>
<path d="M279.455 312.647C279.455 312.647 279.455 286.955 250.751 286.955C222.047 286.955 221.999 312.647 221.999 312.647" stroke="#181818" stroke-linecap="round" stroke-linejoin="round"/>
<path d="M279.456 315.072C280.794 315.072 281.88 313.987 281.88 312.648C281.88 311.309 280.794 310.224 279.456 310.224C278.117 310.224 277.032 311.309 277.032 312.648C277.032 313.987 278.117 315.072 279.456 315.072Z" fill="#F1F1F1" stroke="#181818" stroke-linecap="round" stroke-linejoin="round"/>
<path d="M219.603 312.647C219.603 312.173 219.744 311.709 220.008 311.314C220.271 310.919 220.646 310.612 221.085 310.43C221.523 310.248 222.006 310.201 222.471 310.293C222.937 310.386 223.364 310.615 223.7 310.95C224.036 311.286 224.264 311.714 224.357 312.179C224.449 312.645 224.402 313.127 224.22 313.566C224.039 314.004 223.731 314.379 223.336 314.643C222.942 314.907 222.478 315.047 222.003 315.047C221.367 315.047 220.756 314.794 220.306 314.344C219.856 313.894 219.603 313.284 219.603 312.647Z" fill="#F1F1F1" stroke="#181818" stroke-linecap="round" stroke-linejoin="round"/>
<path d="M277.331 289.08H281.579V284.832H277.331V289.08Z" fill="#F1F1F1" stroke="#181818" stroke-linecap="round" stroke-linejoin="round"/>
<path d="M248.63 289.08H252.878V284.832H248.63V289.08Z" fill="#F1F1F1" stroke="#181818" stroke-linecap="round" stroke-linejoin="round"/>
<path d="M219.925 289.08H224.173V284.832H219.925V289.08Z" fill="#F1F1F1" stroke="#181818" stroke-linecap="round" stroke-linejoin="round"/>
<path d="M128.919 209.843V201.347L122.571 200.807C122.195 199.48 121.667 198.199 120.999 196.991L125.103 192.12L119.103 186.12L114.219 190.224C113.016 189.547 111.734 189.019 110.403 188.652L109.851 182.292H101.379L100.827 188.652C99.4999 189.018 98.2223 189.546 97.0235 190.224L92.1395 186.12L86.1395 192.12L90.2435 196.991C89.5708 198.197 89.0432 199.478 88.6715 200.807L82.3115 201.347V209.843L88.6715 210.383C89.0453 211.712 89.5728 212.993 90.2435 214.199L86.1395 219.071L92.1395 225.071L97.0235 220.967C98.2148 221.644 99.4842 222.172 100.803 222.539L101.355 228.899H109.839L110.391 222.539C111.718 222.171 112.995 221.643 114.195 220.967L119.079 225.071L125.079 219.071L120.975 214.199C121.641 212.991 122.168 211.71 122.547 210.383L128.919 209.843ZM105.603 215.459C103.652 215.459 101.745 214.881 100.123 213.797C98.5013 212.713 97.237 211.173 96.4904 209.37C95.7438 207.568 95.5485 205.585 95.9291 203.671C96.3097 201.758 97.2491 200 98.6287 198.621C100.008 197.241 101.766 196.302 103.679 195.921C105.592 195.54 107.576 195.736 109.378 196.482C111.181 197.229 112.721 198.493 113.805 200.115C114.889 201.737 115.467 203.645 115.467 205.595C115.467 208.212 114.428 210.721 112.578 212.57C110.728 214.42 108.219 215.459 105.603 215.459Z" fill="#F1F1F1" stroke="#181818" stroke-linecap="round" stroke-linejoin="round"/>
<path d="M157.764 228.876V223.068L153.408 222.684C153.158 221.776 152.799 220.902 152.34 220.08L155.148 216.744L151.032 212.64L147.696 215.448C146.872 214.99 145.998 214.628 145.092 214.368L144.72 210H138.912L138.528 214.356C137.622 214.616 136.748 214.978 135.924 215.436L132.588 212.628L128.472 216.732L131.292 220.068C130.825 220.887 130.462 221.762 130.212 222.672L125.856 223.056V228.864L130.212 229.236C130.46 230.146 130.822 231.022 131.292 231.84L128.472 235.2L132.588 239.304L135.924 236.496C136.748 236.954 137.622 237.316 138.528 237.576L138.912 241.92H144.72L145.092 237.576C145.998 237.316 146.872 236.954 147.696 236.496L151.032 239.304L155.148 235.2L152.4 231.852C152.861 231.031 153.22 230.156 153.468 229.248L157.764 228.876ZM141.816 232.716C140.479 232.718 139.171 232.324 138.058 231.582C136.945 230.841 136.078 229.786 135.565 228.551C135.052 227.316 134.917 225.956 135.177 224.645C135.438 223.333 136.081 222.128 137.027 221.183C137.973 220.237 139.178 219.593 140.489 219.333C141.801 219.073 143.16 219.208 144.395 219.72C145.63 220.233 146.685 221.101 147.427 222.214C148.168 223.327 148.563 224.635 148.56 225.972C148.557 227.76 147.846 229.473 146.581 230.737C145.317 232.001 143.604 232.713 141.816 232.716Z" fill="#F1F1F1" stroke="#181818" stroke-linecap="round" stroke-linejoin="round"/>
<path d="M306.768 340.968H353.244" stroke="#181818" stroke-width="2" stroke-linecap="round" stroke-linejoin="round"/>
<path d="M306.768 348.42H353.244" stroke="#181818" stroke-width="2" stroke-linecap="round" stroke-linejoin="round"/>
<path d="M306.768 356.004H333.264" stroke="#181818" stroke-width="2" stroke-linecap="round" stroke-linejoin="round"/>
<path d="M245.53 359.1H221.062C219.471 359.1 217.945 358.467 216.819 357.342C215.694 356.217 215.062 354.691 215.062 353.1C215.062 351.508 215.694 349.982 216.819 348.857C217.945 347.732 219.471 347.099 221.062 347.099H245.53C247.121 347.099 248.647 347.732 249.773 348.857C250.898 349.982 251.53 351.508 251.53 353.1C251.53 354.691 250.898 356.217 249.773 357.342C248.647 358.467 247.121 359.1 245.53 359.1Z" fill="#F1F1F1" stroke="#181818" stroke-linecap="round" stroke-linejoin="round"/>
<path d="M291.133 359.1H266.665C265.073 359.1 263.547 358.468 262.422 357.342C261.297 356.217 260.665 354.691 260.665 353.1C260.665 351.508 261.297 349.982 262.422 348.857C263.547 347.732 265.073 347.1 266.665 347.1H291.133C292.724 347.1 294.25 347.732 295.375 348.857C296.5 349.982 297.133 351.508 297.133 353.1C297.133 354.691 296.5 356.217 295.375 357.342C294.25 358.468 292.724 359.1 291.133 359.1Z" fill="#F1F1F1" stroke="#181818" stroke-linecap="round" stroke-linejoin="round"/>
<path d="M362.054 230.364H310.166V282.252H362.054V230.364Z" fill="white" stroke="#181818" stroke-linecap="round" stroke-linejoin="round"/>
<path d="M310.166 230.364L362.054 282.252" stroke="#181818" stroke-linecap="round" stroke-linejoin="round"/>
<path d="M362.054 230.364L310.166 282.252" stroke="#181818" stroke-linecap="round" stroke-linejoin="round"/>
<path d="M330.518 171.456V183.564L325.178 188.904H313.07V171.456H330.518Z" fill="white" stroke="#181818" stroke-linecap="round" stroke-linejoin="round"/>
<path d="M330.516 183.564L325.176 188.904V183.564H330.516Z" fill="white" stroke="#181818" stroke-linecap="round" stroke-linejoin="round"/>
<path d="M144.961 265.092V277.2L139.621 282.552H127.513V265.092H144.961Z" fill="white" stroke="#181818" stroke-linecap="round" stroke-linejoin="round"/>
<path d="M144.959 277.2L139.619 282.552V277.2H144.959Z" fill="white" stroke="#181818" stroke-linecap="round" stroke-linejoin="round"/>
<path d="M79.0328 339.695V351.803L73.6928 357.143H61.5728V339.695H79.0328Z" fill="white" stroke="#181818" stroke-linecap="round" stroke-linejoin="round"/>
<path d="M79.0314 351.804L73.6914 357.144V351.804H79.0314Z" fill="white" stroke="#181818" stroke-linecap="round" stroke-linejoin="round"/>
<path d="M418.401 199.536H354.009V239.892H418.401V199.536Z" fill="#181818" stroke="#181818" stroke-linecap="round" stroke-linejoin="round"/>
<path d="M418.401 199.536H354.009V205.668H418.401V199.536Z" fill="#F1F1F1" stroke="#181818" stroke-linecap="round" stroke-linejoin="round"/>
<path d="M360.576 210.84H377.04" stroke="white" stroke-linecap="round" stroke-linejoin="round"/>
<path d="M368.808 215.436H397.296" stroke="white" stroke-linecap="round" stroke-linejoin="round"/>
<path d="M365.172 219.721H373.56" stroke="white" stroke-linecap="round" stroke-linejoin="round"/>
<path d="M368.808 224.772H387.996" stroke="white" stroke-linecap="round" stroke-linejoin="round"/>
<path d="M360.576 229.356H377.04" stroke="white" stroke-linecap="round" stroke-linejoin="round"/>
<path d="M176.231 361.908H111.839V402.264H176.231V361.908Z" fill="#181818" stroke="#181818" stroke-linecap="round" stroke-linejoin="round"/>
<path d="M176.231 361.908H111.839V368.04H176.231V361.908Z" fill="#F1F1F1" stroke="#181818" stroke-linecap="round" stroke-linejoin="round"/>
<path d="M118.414 373.225H134.866" stroke="white" stroke-linecap="round" stroke-linejoin="round"/>
<path d="M126.636 377.808H155.124" stroke="white" stroke-linecap="round" stroke-linejoin="round"/>
<path d="M123 382.093H131.388" stroke="white" stroke-linecap="round" stroke-linejoin="round"/>
<path d="M126.636 387.145H145.824" stroke="white" stroke-linecap="round" stroke-linejoin="round"/>
<path d="M118.414 391.74H134.866" stroke="white" stroke-linecap="round" stroke-linejoin="round"/>
<path d="M200.399 69.5996H141.239C140.547 69.6028 139.883 69.8794 139.393 70.3693C138.903 70.8592 138.627 71.5228 138.623 72.2156V99.8156C138.627 100.507 138.904 101.17 139.394 101.658C139.884 102.146 140.548 102.42 141.239 102.42H167.759L170.783 113.22L173.819 102.42H200.399C201.091 102.42 201.755 102.146 202.245 101.658C202.735 101.17 203.012 100.507 203.015 99.8156V72.2156C203.012 71.5228 202.736 70.8592 202.246 70.3693C201.756 69.8794 201.092 69.6028 200.399 69.5996Z" fill="#F1F1F1" stroke="#181818" stroke-linecap="round" stroke-linejoin="round"/>
<path d="M148.441 77.4961H193.141" stroke="#181818" stroke-width="2" stroke-linecap="round" stroke-linejoin="round"/>
<path d="M148.441 83.1599H193.141" stroke="#181818" stroke-width="2" stroke-linecap="round" stroke-linejoin="round"/>
<path d="M148.441 88.8232H193.141" stroke="#181818" stroke-width="2" stroke-linecap="round" stroke-linejoin="round"/>
<path d="M148.441 94.4873H182.125" stroke="#181818" stroke-width="2" stroke-linecap="round" stroke-linejoin="round"/>
<path d="M297.44 265.896C291.092 266.436 283.04 258.852 283.04 258.852C282.886 259.011 282.696 259.133 282.487 259.206C282.278 259.28 282.054 259.303 281.834 259.275C281.614 259.247 281.403 259.169 281.219 259.045C281.035 258.922 280.882 258.757 280.772 258.564C279.74 257.076 275.264 253.632 275.012 250.656C274.76 247.68 280.04 242.856 280.04 242.856C275.972 243.96 275.54 241.572 275.54 241.572C275.54 241.572 282.392 235.92 284.792 235.764C285.728 235.704 289.808 238.056 293.756 241.224C297.884 244.548 305.636 256.248 305.636 256.248C305.636 256.248 331.856 275.292 338.48 280.164C347.228 286.596 357.596 298.008 357.596 298.008C357.596 298.008 392.396 313.704 401.996 322.332L389.012 353.076C389.012 353.076 357.368 331.872 354.212 326.496C351.056 321.12 347.888 324.348 344.72 320.832C341.552 317.316 338.516 313.296 338.516 313.296C332.882 310.575 327.768 306.887 323.408 302.4C316.016 294.804 309.5 283.2 305.408 276.216C303.289 272.393 300.603 268.913 297.44 265.896Z" fill="white" stroke="#181818" stroke-linecap="round" stroke-linejoin="round"/>
<path d="M299.374 261.407C299.374 261.407 289.93 259.115 289.114 252.887C288.753 251.308 288.062 249.824 287.086 248.531C287.086 248.531 278.278 248.099 278.83 244.511L290.59 243.467C294.871 245.112 298.475 248.146 300.826 252.083" fill="white"/>
<path d="M299.374 261.407C299.374 261.407 289.93 259.115 289.114 252.887C288.753 251.308 288.062 249.824 287.086 248.531C287.086 248.531 278.278 248.099 278.83 244.511L290.59 243.467C294.871 245.112 298.475 248.146 300.826 252.083" stroke="#181818" stroke-linecap="round" stroke-linejoin="round"/>
<path d="M283.03 258.851C283.449 258.074 283.589 257.176 283.426 256.307C283.426 256.307 286.018 255.827 285.73 253.535C285.73 253.535 289.57 253.067 287.086 248.531" stroke="#181818" stroke-linecap="round" stroke-linejoin="round"/>
<path d="M285.728 253.536C285.728 253.536 280.556 249.708 279.98 247.956" stroke="#181818" stroke-linecap="round" stroke-linejoin="round"/>
<path d="M283.426 256.307C283.426 256.307 277.918 252.947 277.822 250.991" stroke="#181818" stroke-linecap="round" stroke-linejoin="round"/>
<path d="M284.685 239.051C284.685 239.051 282.933 242.195 280.029 242.855" stroke="#181818" stroke-linecap="round" stroke-linejoin="round"/>
<path d="M283.809 240.275C284.729 240.756 285.598 241.331 286.401 241.991" stroke="#181818" stroke-linecap="round" stroke-linejoin="round"/>
<path d="M484.941 346.56C471.363 340.813 457.356 336.135 443.049 332.568C421.977 327.636 387.849 323.232 387.849 323.232C387.849 323.232 397.233 418.992 394.761 424.752C392.289 430.512 377.457 449.856 377.457 449.856C377.457 449.856 457.725 481.152 471.717 483.816C485.709 486.48 478.413 437.916 478.413 437.916C478.413 437.916 493.197 376.188 484.941 346.56Z" fill="#181818"/>
<path d="M456.128 336.275C456.128 336.275 458.036 339.875 453.02 341.759C440.024 346.559 426.176 342.323 427.652 337.235C428.216 335.291 431.432 337.235 431.252 330.035C431.163 328.926 430.866 327.843 430.376 326.843C429.459 324.896 428.354 323.043 427.076 321.311C425.689 319.384 424.203 317.529 422.624 315.755C422.624 315.755 443.252 302.555 458.552 315.755C458.528 315.695 452.84 318.575 456.128 336.275Z" fill="white" stroke="#181818" stroke-linecap="round" stroke-linejoin="round"/>
<path d="M481.69 506.831C473.566 520.031 432.346 526.283 409.846 525.695C387.346 525.107 322.606 494.495 318.214 487.967C314.146 481.967 304.15 462.083 319.558 450.071C320.865 449.062 322.254 448.163 323.71 447.383C334.258 441.671 404.41 459.683 404.41 459.683C404.41 459.683 408.754 456.935 410.35 457.139C415.246 457.763 418.75 461.723 428.638 464.543C435.562 466.523 454.462 458.915 466.534 465.455C467.873 466.171 469.109 467.068 470.206 468.119C481.486 478.895 489.802 493.595 481.69 506.831Z" fill="#F1F1F1"/>
<path opacity="0.3" d="M466.53 465.455C454.158 464.627 443.13 467.219 435.426 471.767C426.294 477.167 383.166 497.939 383.166 497.939C383.262 495.707 385.662 491.207 385.662 491.207C381.606 487.607 370.998 484.787 370.998 484.787C362.778 477.767 330.198 456.827 319.554 450.071C320.861 449.062 322.25 448.163 323.706 447.383C334.254 441.671 404.406 459.683 404.406 459.683C404.406 459.683 408.75 456.935 410.346 457.139C415.242 457.763 418.746 461.723 428.634 464.543C435.594 466.523 454.458 458.915 466.53 465.455Z" fill="#181818" fill-opacity="0.7"/>
<path d="M481.69 506.831C473.566 520.031 432.346 526.283 409.846 525.695C387.346 525.107 322.606 494.495 318.214 487.967C314.146 481.967 304.15 462.083 319.558 450.071C320.865 449.062 322.254 448.163 323.71 447.383C334.258 441.671 404.41 459.683 404.41 459.683C404.41 459.683 408.754 456.935 410.35 457.139C415.246 457.763 418.75 461.723 428.638 464.543C435.562 466.523 454.462 458.915 466.534 465.455C467.873 466.171 469.109 467.068 470.206 468.119C481.486 478.895 489.802 493.595 481.69 506.831Z" stroke="#181818" stroke-linecap="round" stroke-linejoin="round"/>
<path d="M469.039 518.783L470.071 523.307C470.071 523.307 467.311 531.131 455.179 532.415C443.047 533.699 435.859 536.375 429.979 536.723C426.905 536.965 423.815 536.917 420.751 536.579L419.551 534.803L469.039 518.783Z" fill="white" stroke="#181818" stroke-linecap="round" stroke-linejoin="round"/>
<path d="M398.59 518.303L419.614 534.803C429.747 533.937 439.816 532.43 449.758 530.291C459.718 527.987 468.418 524.687 468.886 520.151C469.618 513.263 462.25 511.379 453.502 511.643C451.87 511.643 450.19 511.811 448.498 511.979C434.494 513.479 416.686 505.751 416.686 505.751L398.59 518.303Z" fill="#181818"/>
<path opacity="0.3" d="M468.898 519.984C464.817 521.502 460.901 523.432 457.21 525.744C457.21 525.744 437.686 535.788 407.674 525.444L398.59 518.304L416.686 505.74C416.686 505.74 434.482 513.48 448.498 511.968C450.19 511.788 451.87 511.667 453.502 511.631C462.19 511.367 469.498 513.216 468.898 519.984Z" fill="#181818" fill-opacity="0.7"/>
<path d="M398.59 518.303L419.614 534.803C429.747 533.937 439.816 532.43 449.758 530.291C459.718 527.987 468.418 524.687 468.886 520.151C469.618 513.263 462.25 511.379 453.502 511.643C451.87 511.643 450.19 511.811 448.498 511.979C434.494 513.479 416.686 505.751 416.686 505.751L398.59 518.303Z" stroke="#181818" stroke-linecap="round" stroke-linejoin="round"/>
<path d="M418.188 524.808C414.396 525.42 418.56 533.208 423.696 530.808C428.832 528.408 421.98 524.184 418.188 524.808Z" fill="white"/>
<path opacity="0.2" d="M425.301 529.572C422.554 529.237 419.826 528.76 417.129 528.144C416.409 526.62 416.577 525.06 418.185 524.808C421.365 524.28 426.717 527.22 425.301 529.572Z" fill="#181818" fill-opacity="0.7"/>
<path d="M418.188 524.808C414.396 525.42 418.56 533.208 423.696 530.808C428.832 528.408 421.98 524.184 418.188 524.808Z" stroke="#181818" stroke-linecap="round" stroke-linejoin="round"/>
<path d="M449.759 530.279C459.719 527.975 468.419 524.675 468.887 520.139C469.619 513.251 462.251 511.367 453.503 511.631C453.119 512.003 444.635 520.199 449.759 530.279Z" fill="white"/>
<path opacity="0.3" d="M468.897 519.983C464.815 521.502 460.899 523.432 457.208 525.743C454.578 526.959 451.821 527.881 448.988 528.491C445.628 519.251 453.14 511.979 453.5 511.631C462.189 511.367 469.497 513.215 468.897 519.983Z" fill="#181818" fill-opacity="0.7"/>
<path d="M449.759 530.279C459.719 527.975 468.419 524.675 468.887 520.139C469.619 513.251 462.251 511.367 453.503 511.631C453.119 512.003 444.635 520.199 449.759 530.279Z" stroke="#181818" stroke-linecap="round" stroke-linejoin="round"/>
<path d="M442.653 521.724H442.713C442.85 521.731 442.986 521.71 443.115 521.663C443.243 521.616 443.361 521.545 443.462 521.452C443.562 521.359 443.643 521.248 443.7 521.123C443.757 520.999 443.789 520.865 443.793 520.728C444.133 517.78 445.393 515.013 447.393 512.82C447.49 512.724 447.566 512.61 447.619 512.484C447.671 512.359 447.698 512.224 447.698 512.088C447.698 511.952 447.671 511.817 447.619 511.692C447.566 511.566 447.49 511.452 447.393 511.356C447.198 511.164 446.935 511.056 446.661 511.056C446.387 511.056 446.125 511.164 445.929 511.356C443.576 513.908 442.115 517.155 441.765 520.608C441.741 520.873 441.82 521.136 441.986 521.344C442.151 521.552 442.39 521.688 442.653 521.724Z" fill="white" stroke="#181818" stroke-linecap="round" stroke-linejoin="round"/>
<path d="M438.489 521.999H438.573C438.709 522.002 438.845 521.979 438.972 521.929C439.099 521.879 439.215 521.805 439.314 521.71C439.412 521.615 439.49 521.502 439.544 521.376C439.598 521.251 439.627 521.116 439.629 520.979C439.867 517.983 440.976 515.121 442.821 512.747C442.922 512.644 443 512.52 443.051 512.385C443.101 512.25 443.123 512.105 443.115 511.961C443.107 511.816 443.07 511.675 443.004 511.546C442.939 511.417 442.847 511.303 442.735 511.212C442.624 511.12 442.494 511.052 442.355 511.013C442.216 510.974 442.07 510.965 441.927 510.985C441.783 511.005 441.646 511.055 441.523 511.131C441.4 511.207 441.294 511.308 441.213 511.427C439.071 514.159 437.796 517.469 437.553 520.931C437.542 521.195 437.634 521.453 437.808 521.652C437.982 521.851 438.225 521.975 438.489 521.999Z" fill="white" stroke="#181818" stroke-linecap="round" stroke-linejoin="round"/>
<path d="M433.509 521.448C433.645 521.461 433.782 521.447 433.912 521.407C434.042 521.367 434.163 521.302 434.268 521.215C434.373 521.128 434.46 521.021 434.523 520.9C434.586 520.78 434.625 520.648 434.637 520.512C434.961 516.912 438.057 512.196 438.093 512.112C438.245 511.88 438.3 511.598 438.246 511.327C438.192 511.055 438.034 510.816 437.805 510.66C437.575 510.509 437.295 510.454 437.026 510.508C436.756 510.562 436.519 510.72 436.365 510.948C436.221 511.152 432.933 516.096 432.561 520.272C432.543 520.412 432.553 520.554 432.591 520.69C432.629 520.826 432.695 520.953 432.783 521.063C432.872 521.173 432.982 521.263 433.107 521.33C433.231 521.396 433.368 521.436 433.509 521.448Z" fill="white" stroke="#181818" stroke-linecap="round" stroke-linejoin="round"/>
<path d="M428.804 520.955C428.895 520.967 428.988 520.967 429.08 520.955C429.215 520.934 429.344 520.885 429.461 520.813C429.577 520.741 429.678 520.646 429.757 520.534C429.836 520.422 429.893 520.296 429.923 520.162C429.953 520.029 429.956 519.89 429.932 519.755C429.2 515.339 433.304 511.559 433.34 511.523C433.475 511.332 433.542 511.099 433.53 510.865C433.517 510.63 433.426 510.406 433.27 510.23C433.115 510.053 432.904 509.935 432.673 509.893C432.442 509.851 432.203 509.889 431.996 509.999C431.792 510.179 427.004 514.571 427.928 520.127C427.972 520.338 428.079 520.531 428.236 520.679C428.392 520.827 428.591 520.923 428.804 520.955Z" fill="white" stroke="#181818" stroke-linecap="round" stroke-linejoin="round"/>
<path d="M423.69 519.719C423.801 519.737 423.915 519.737 424.026 519.719C424.284 519.656 424.509 519.497 424.654 519.274C424.799 519.051 424.853 518.781 424.806 518.519C423.906 514.583 427.782 510.119 427.83 510.119C428.01 509.912 428.101 509.642 428.083 509.368C428.065 509.094 427.939 508.838 427.734 508.655C427.633 508.564 427.514 508.494 427.386 508.449C427.257 508.404 427.121 508.384 426.985 508.392C426.848 508.4 426.715 508.435 426.593 508.494C426.47 508.554 426.36 508.637 426.27 508.739C426.078 508.955 421.638 514.031 422.778 519.023C422.844 519.217 422.966 519.386 423.128 519.51C423.291 519.634 423.486 519.707 423.69 519.719Z" fill="white" stroke="#181818" stroke-linecap="round" stroke-linejoin="round"/>
<path d="M315.595 512.016L314.095 516.408C314.095 516.408 316.015 524.484 327.943 527.028C339.871 529.572 346.735 533.028 352.495 533.964C355.527 534.522 358.604 534.795 361.687 534.78L363.067 533.136L315.595 512.016Z" fill="white" stroke="#181818" stroke-linecap="round" stroke-linejoin="round"/>
<path d="M385.664 518.939L363.032 533.135C353.044 531.211 343.189 528.658 333.524 525.491C323.864 522.155 315.524 517.955 315.524 513.395C315.524 506.459 323.048 505.367 331.724 506.543C333.344 506.759 335 507.059 336.668 507.407C350.432 510.371 368.948 504.551 368.948 504.551L385.664 518.939Z" fill="#181818"/>
<path opacity="0.3" d="M385.664 518.94L372.356 527.34C361.565 523.988 352.102 517.325 345.309 508.296C353.33 508.119 361.293 506.872 368.984 504.588L385.664 518.94Z" fill="#181818" fill-opacity="0.7"/>
<path d="M385.664 518.939L363.032 533.135C353.044 531.211 343.189 528.658 333.524 525.491C323.864 522.155 315.524 517.955 315.524 513.395C315.524 506.459 323.048 505.367 331.724 506.543C333.344 506.759 335 507.059 336.668 507.407C350.432 510.371 368.948 504.551 368.948 504.551L385.664 518.939Z" stroke="#181818" stroke-linecap="round" stroke-linejoin="round"/>
<path d="M333.524 525.48C323.864 522.144 315.524 517.944 315.524 513.384C315.524 506.448 323.048 505.356 331.724 506.532C332.108 506.94 339.68 516 333.524 525.48Z" fill="white" stroke="#181818" stroke-linecap="round" stroke-linejoin="round"/>
<path d="M341.491 517.716H341.431C341.155 517.697 340.898 517.571 340.714 517.365C340.53 517.158 340.434 516.888 340.447 516.612C340.428 513.65 339.475 510.769 337.723 508.38C337.621 508.275 337.543 508.15 337.492 508.013C337.442 507.875 337.42 507.729 337.43 507.583C337.44 507.437 337.48 507.295 337.548 507.165C337.617 507.036 337.711 506.922 337.826 506.832C337.941 506.741 338.074 506.676 338.216 506.64C338.358 506.604 338.506 506.598 338.65 506.623C338.794 506.648 338.931 506.703 339.053 506.785C339.174 506.866 339.277 506.972 339.355 507.096C341.426 509.867 342.538 513.237 342.523 516.696C342.52 516.967 342.41 517.227 342.217 517.418C342.024 517.609 341.763 517.716 341.491 517.716Z" fill="white" stroke="#181818" stroke-linecap="round" stroke-linejoin="round"/>
<path d="M345.597 518.399H345.501C345.226 518.375 344.972 518.242 344.794 518.031C344.617 517.819 344.53 517.546 344.553 517.271C344.639 514.272 343.842 511.313 342.261 508.763C342.183 508.65 342.127 508.522 342.097 508.387C342.068 508.252 342.066 508.112 342.09 507.976C342.115 507.84 342.166 507.711 342.24 507.594C342.315 507.478 342.412 507.378 342.525 507.299C342.639 507.22 342.767 507.165 342.902 507.135C343.037 507.106 343.176 507.103 343.312 507.128C343.448 507.152 343.578 507.203 343.694 507.278C343.81 507.353 343.911 507.45 343.989 507.563C345.843 510.501 346.764 513.932 346.629 517.403C346.617 517.669 346.503 517.921 346.311 518.106C346.12 518.291 345.864 518.396 345.597 518.399Z" fill="white" stroke="#181818" stroke-linecap="round" stroke-linejoin="round"/>
<path d="M350.613 518.4C350.337 518.393 350.075 518.279 349.882 518.082C349.689 517.885 349.581 517.62 349.581 517.344C349.653 513.684 347.061 508.728 347.025 508.68C346.898 508.433 346.873 508.145 346.957 507.88C347.04 507.615 347.224 507.394 347.469 507.264C347.714 507.137 348 507.113 348.263 507.196C348.526 507.279 348.745 507.463 348.873 507.708C348.993 507.924 351.741 513.18 351.669 517.38C351.663 517.654 351.549 517.916 351.351 518.107C351.153 518.298 350.888 518.403 350.613 518.4Z" fill="white" stroke="#181818" stroke-linecap="round" stroke-linejoin="round"/>
<path d="M355.34 518.399H355.064C354.799 518.324 354.574 518.147 354.44 517.906C354.305 517.665 354.27 517.381 354.344 517.115C355.544 512.807 351.86 508.607 351.824 508.571C351.72 508.472 351.638 508.352 351.582 508.22C351.526 508.087 351.499 507.944 351.501 507.801C351.503 507.657 351.535 507.515 351.594 507.384C351.654 507.253 351.74 507.136 351.847 507.039C351.954 506.943 352.079 506.87 352.216 506.825C352.352 506.78 352.497 506.763 352.64 506.776C352.783 506.789 352.922 506.832 353.048 506.901C353.174 506.971 353.285 507.065 353.372 507.179C353.552 507.383 357.86 512.255 356.348 517.679C356.278 517.89 356.142 518.073 355.961 518.203C355.78 518.332 355.563 518.401 355.34 518.399Z" fill="white" stroke="#181818" stroke-linecap="round" stroke-linejoin="round"/>
<path d="M360.564 517.715C360.449 517.72 360.334 517.699 360.228 517.655C360.097 517.613 359.976 517.545 359.872 517.456C359.768 517.366 359.683 517.256 359.623 517.133C359.562 517.01 359.527 516.875 359.52 516.738C359.512 516.601 359.533 516.464 359.58 516.335C360.888 512.519 357.492 507.683 357.468 507.635C357.369 507.525 357.295 507.396 357.25 507.256C357.205 507.116 357.191 506.968 357.207 506.822C357.223 506.675 357.27 506.534 357.345 506.407C357.42 506.281 357.521 506.171 357.641 506.086C357.761 506.001 357.897 505.942 358.042 505.913C358.186 505.885 358.335 505.887 358.478 505.92C358.622 505.953 358.757 506.016 358.874 506.105C358.991 506.193 359.089 506.306 359.16 506.435C359.328 506.663 363.204 512.183 361.56 517.031C361.483 517.233 361.347 517.407 361.169 517.529C360.991 517.652 360.78 517.716 360.564 517.715Z" fill="white" stroke="#181818" stroke-linecap="round" stroke-linejoin="round"/>
<path d="M365.492 523.343C369.2 524.363 364.292 531.623 359.384 528.743C354.476 525.863 361.796 522.335 365.492 523.343Z" fill="white" stroke="#181818" stroke-linecap="round" stroke-linejoin="round"/>
<path d="M322.702 484.8C328.258 492.588 344.734 501.192 361.102 508.284C364.029 513.132 367.482 517.644 371.398 521.736C381.502 532.128 385.618 526.308 385.618 526.308C385.618 526.308 392.002 525.588 401.422 524.304C401.814 525.217 402.497 525.976 403.366 526.46C404.234 526.944 405.239 527.127 406.222 526.98C407.422 526.788 409.822 525.036 412.474 522.72C436.27 519.12 468.562 513.12 477.274 506.136" fill="#F1F1F1"/>
<path d="M322.702 484.8C328.258 492.588 344.734 501.192 361.102 508.284C364.029 513.132 367.482 517.644 371.398 521.736C381.502 532.128 385.618 526.308 385.618 526.308C385.618 526.308 392.002 525.588 401.422 524.304C401.814 525.217 402.497 525.976 403.366 526.46C404.234 526.944 405.239 527.127 406.222 526.98C407.422 526.788 409.822 525.036 412.474 522.72C436.27 519.12 468.562 513.12 477.274 506.136" stroke="#181818" stroke-linecap="round" stroke-linejoin="round"/>
<path d="M467.996 469.967C463.88 465.443 459.764 465.239 451.124 465.851C451.124 465.851 428.576 473.051 412.844 482.519C397.112 491.987 374.168 502.031 374.168 502.031C374.168 502.031 367.172 500.003 362.3 502.031C362.3 502.031 358.88 502.295 361.172 508.271" stroke="#181818" stroke-linecap="round" stroke-linejoin="round"/>
<path d="M478.459 497.004C478.459 497.004 478.579 503.976 468.691 508.8" stroke="#181818" stroke-linecap="round" stroke-linejoin="round"/>
<path d="M369.404 467.915C369.404 467.915 385.004 479.195 388.136 486.635C391.202 487.927 394.163 489.456 396.992 491.207" stroke="#181818" stroke-linecap="round" stroke-linejoin="round"/>
<path d="M389.264 477.288C390.408 480.53 390.6 484.032 389.816 487.38" stroke="#181818" stroke-linecap="round" stroke-linejoin="round"/>
<path d="M385.667 469.968C386.517 471.204 387.264 472.508 387.899 473.868" stroke="#181818" stroke-linecap="round" stroke-linejoin="round"/>
<path d="M407.888 468.936C407.888 468.936 413.108 475.92 414.404 481.584" stroke="#181818" stroke-linecap="round" stroke-linejoin="round"/>
<path d="M436.964 511.127C438.905 511.013 440.837 510.773 442.747 510.407" stroke="#181818" stroke-linecap="round" stroke-linejoin="round"/>
<path d="M387.992 506.123C402.784 509.053 417.789 510.775 432.86 511.271" stroke="#181818" stroke-linecap="round" stroke-linejoin="round"/>
<path d="M493.581 400.308C493.581 400.308 490.761 449.508 487.437 452.328C484.113 455.148 478.869 456.023 468.945 456.851C459.021 457.679 415.125 460.368 415.125 460.368L410.397 446.268C410.397 446.268 433.737 443.867 444.093 440.087C451.901 437.418 459.889 435.309 467.997 433.776C467.997 433.776 466.029 421.404 466.029 416.076V391.02" fill="white"/>
<path d="M493.581 400.308C493.581 400.308 490.761 449.508 487.437 452.328C484.113 455.148 478.869 456.023 468.945 456.851C459.021 457.679 415.125 460.368 415.125 460.368L410.397 446.268C410.397 446.268 433.737 443.867 444.093 440.087C451.901 437.418 459.889 435.309 467.997 433.776C467.997 433.776 466.029 421.404 466.029 416.076V391.02" stroke="#181818" stroke-linecap="round" stroke-linejoin="round"/>
<path d="M484.94 346.559C495.632 353.147 498.788 368.375 495.092 400.883C495.092 400.883 498.248 404.723 493.58 406.643C493.58 406.643 476.096 400.103 467.972 404.615C459.848 409.127 461.972 398.387 461.972 398.387C461.972 398.387 458.624 368.483 466.028 363.071" fill="#181818"/>
<path d="M465.046 358.5C465.046 358.5 454.762 369.192 463.846 396.216C463.273 398.421 462.871 400.668 462.646 402.936C462.646 404.748 465.13 405.684 465.13 405.684" stroke="white" stroke-linecap="round" stroke-linejoin="round"/>
<path d="M453.021 376.607C453.021 376.607 453.765 389.807 461.949 395.531" stroke="white" stroke-linecap="round" stroke-linejoin="round"/>
<path d="M455.66 345.959C455.66 345.959 439.712 352.067 427.028 345.299C419.504 341.291 422.6 334.847 422.6 334.847" stroke="white" stroke-linecap="round" stroke-linejoin="round"/>
<path d="M340.979 469.991H427.786C429.747 469.992 431.699 469.738 433.594 469.235L450.719 464.747C450.955 464.686 451.165 464.548 451.315 464.355C451.465 464.161 451.546 463.924 451.547 463.679C451.547 463.383 451.429 463.099 451.22 462.89C451.01 462.681 450.726 462.563 450.43 462.563H337.391C337.097 462.566 336.816 462.685 336.609 462.894C336.402 463.103 336.286 463.385 336.286 463.679V465.299C336.286 466.543 336.781 467.737 337.661 468.617C338.541 469.497 339.734 469.991 340.979 469.991Z" fill="#757575" stroke="#181818" stroke-linecap="round" stroke-linejoin="round"/>
<path d="M332.397 465.672H419.445C419.785 465.687 420.125 465.618 420.433 465.47C420.74 465.323 421.006 465.101 421.207 464.825C421.408 464.549 421.538 464.228 421.584 463.89C421.63 463.552 421.592 463.207 421.473 462.888L405.333 400.092C405.116 399.321 404.665 398.637 404.041 398.136C403.417 397.635 402.652 397.341 401.853 397.296H314.781C314.439 397.282 314.1 397.353 313.792 397.502C313.485 397.652 313.219 397.874 313.019 398.151C312.818 398.428 312.689 398.749 312.642 399.088C312.596 399.426 312.634 399.771 312.753 400.092L328.905 462.888C329.12 463.66 329.574 464.344 330.201 464.844C330.828 465.344 331.596 465.633 332.397 465.672Z" fill="#999999" stroke="#181818" stroke-linecap="round" stroke-linejoin="round"/>
<path d="M317.855 399.527H316.211" stroke="#181818" stroke-linecap="round" stroke-linejoin="round"/>
<path d="M330.608 399.527H322.112" stroke="#181818" stroke-linecap="round" stroke-linejoin="round"/>
<path d="M417.333 457.739L403.077 402.323C402.863 401.554 402.414 400.87 401.792 400.369C401.17 399.867 400.407 399.573 399.609 399.527H332.529" stroke="#181818" stroke-linecap="round" stroke-linejoin="round"/>
<path d="M418.57 462.563L418.21 461.183" stroke="#181818" stroke-linecap="round" stroke-linejoin="round"/>
<path d="M358.568 433.067C358.627 433.575 358.731 434.077 358.88 434.567C359.984 438.347 363.524 440.651 366.776 439.691C370.028 438.731 371.768 434.891 370.664 431.111C369.56 427.331 365.996 425.027 362.744 425.987C362.364 426.104 361.998 426.261 361.652 426.455C361.831 427.737 361.635 429.044 361.087 430.217C360.54 431.39 359.665 432.38 358.568 433.067Z" fill="white" stroke="#181818" stroke-linecap="round" stroke-linejoin="round"/>
<path d="M396.991 315.383C389.455 314.567 385.351 307.403 380.815 306.287C378.284 305.682 375.804 304.879 373.399 303.887C373.399 303.887 371.839 298.439 369.499 300.287C367.159 302.135 364.087 342.887 367.099 341.603C370.111 340.319 370.123 345.131 370.123 345.131L398.095 369.779L421.543 328.259C421.543 328.259 404.527 316.211 396.991 315.383Z" fill="#181818"/>
<path d="M169.052 170.268V169.667H169.652" stroke="#181818" stroke-linecap="round" stroke-linejoin="round"/>
<path d="M173.184 169.667H274.704" stroke="#181818" stroke-linecap="round" stroke-linejoin="round" stroke-dasharray="0.98 2.93"/>
<path d="M276.455 169.667H277.055V170.267" stroke="#181818" stroke-linecap="round" stroke-linejoin="round"/>
<path d="M277.064 173.868V239.268" stroke="#181818" stroke-linecap="round" stroke-linejoin="round" stroke-dasharray="1 3"/>
<path d="M277.055 241.068V241.668H276.455" stroke="#181818" stroke-linecap="round" stroke-linejoin="round"/>
<path d="M272.936 241.667H171.416" stroke="#181818" stroke-linecap="round" stroke-linejoin="round" stroke-dasharray="0.98 2.93"/>
<path d="M169.652 241.668H169.052V241.068" stroke="#181818" stroke-linecap="round" stroke-linejoin="round"/>
<path d="M169.066 237.468V172.068" stroke="#181818" stroke-linecap="round" stroke-linejoin="round" stroke-dasharray="1 3"/>
<path d="M223.066 171.443C224.047 171.443 224.842 170.648 224.842 169.667C224.842 168.686 224.047 167.891 223.066 167.891C222.085 167.891 221.29 168.686 221.29 169.667C221.29 170.648 222.085 171.443 223.066 171.443Z" fill="#F1F1F1" stroke="#181818" stroke-linecap="round" stroke-linejoin="round"/>
<path d="M169.064 207.444C170.045 207.444 170.84 206.648 170.84 205.668C170.84 204.687 170.045 203.892 169.064 203.892C168.084 203.892 167.288 204.687 167.288 205.668C167.288 206.648 168.084 207.444 169.064 207.444Z" fill="#F1F1F1" stroke="#181818" stroke-linecap="round" stroke-linejoin="round"/>
<path d="M223.066 243.443C224.047 243.443 224.842 242.648 224.842 241.667C224.842 240.686 224.047 239.891 223.066 239.891C222.085 239.891 221.29 240.686 221.29 241.667C221.29 242.648 222.085 243.443 223.066 243.443Z" fill="#F1F1F1" stroke="#181818" stroke-linecap="round" stroke-linejoin="round"/>
<path d="M277.066 207.443C278.047 207.443 278.842 206.648 278.842 205.667C278.842 204.686 278.047 203.891 277.066 203.891C276.085 203.891 275.29 204.686 275.29 205.667C275.29 206.648 276.085 207.443 277.066 207.443Z" fill="#F1F1F1" stroke="#181818" stroke-linecap="round" stroke-linejoin="round"/>
<path d="M279.13 239.604H274.99V243.744H279.13V239.604Z" fill="#F1F1F1" stroke="#181818" stroke-linecap="round" stroke-linejoin="round"/>
<path d="M279.13 167.603H274.99V171.743H279.13V167.603Z" fill="#F1F1F1" stroke="#181818" stroke-linecap="round" stroke-linejoin="round"/>
<path d="M171.129 239.603H166.989V243.743H171.129V239.603Z" fill="#F1F1F1" stroke="#181818" stroke-linecap="round" stroke-linejoin="round"/>
<path d="M171.129 167.603H166.989V171.743H171.129V167.603Z" fill="#F1F1F1" stroke="#181818" stroke-linecap="round" stroke-linejoin="round"/>
<path d="M270.226 176.039H176.23V235.763H270.226V176.039Z" fill="white" stroke="#181818" stroke-linecap="round" stroke-linejoin="round"/>
<path d="M270.226 218.124L259.774 228.576L231.502 200.304L219.61 212.196L200.65 193.236L176.23 217.644V235.764H270.226V218.124Z" fill="#F1F1F1" stroke="#181818" stroke-linecap="round" stroke-linejoin="round"/>
<path d="M250.747 199.632C254.412 199.632 257.383 196.661 257.383 192.996C257.383 189.331 254.412 186.36 250.747 186.36C247.082 186.36 244.111 189.331 244.111 192.996C244.111 196.661 247.082 199.632 250.747 199.632Z" fill="#F1F1F1" stroke="#181818" stroke-linecap="round" stroke-linejoin="round"/>
<path d="M401.997 326.399C401.997 326.399 394.797 339.803 393.945 360.311" stroke="white" stroke-linecap="round" stroke-linejoin="round"/>
<path d="M380.828 335.675C380.828 335.675 382.976 347.075 389.227 355.331" stroke="white" stroke-linecap="round" stroke-linejoin="round"/>
<path d="M410.397 382.716C410.397 382.716 421.197 418.188 444.657 428.628" stroke="white" stroke-linecap="round" stroke-linejoin="round"/>
<path d="M438.811 318.503C438.811 318.503 437.791 326.243 430.351 326.783C429.434 324.836 428.329 322.983 427.051 321.251C430.914 320.108 434.841 319.191 438.811 318.503Z" fill="#181818"/>
<path d="M454.665 319.043C454.665 319.043 467.109 320.567 472.317 303.863C477.525 287.159 473.433 274.571 452.841 268.511C441.417 265.151 430.041 267.851 425.877 276.503C422.349 283.907 424.017 290.063 423.213 292.547C422.301 295.331 413.877 297.695 413.877 299.603C413.877 301.175 418.545 303.863 418.545 303.863L417.177 308.015L418.461 308.699C418.461 308.699 416.061 318.047 417.177 321.347C417.969 323.747 439.053 324.755 440.697 318.779" fill="white"/>
<path d="M454.665 319.043C454.665 319.043 467.109 320.567 472.317 303.863C477.525 287.159 473.433 274.571 452.841 268.511C441.417 265.151 430.041 267.851 425.877 276.503C422.349 283.907 424.017 290.063 423.213 292.547C422.301 295.331 413.877 297.695 413.877 299.603C413.877 301.175 418.545 303.863 418.545 303.863L417.177 308.015L418.461 308.699C418.461 308.699 416.061 318.047 417.177 321.347C417.969 323.747 439.053 324.755 440.697 318.779" stroke="#181818" stroke-linecap="round" stroke-linejoin="round"/>
<path d="M425.999 282.563C425.999 282.563 430.115 283.595 431.243 285.755" stroke="#181818" stroke-linecap="round" stroke-linejoin="round"/>
<path d="M426.718 292.055C426.538 293.255 426.814 294.299 427.342 294.371C427.87 294.443 428.422 293.531 428.602 292.319C428.782 291.107 428.494 290.075 427.978 290.003C427.462 289.931 426.898 290.843 426.718 292.055Z" fill="#181818"/>
<path d="M418.46 308.699C418.46 308.699 425.156 311.267 427.652 309.719" stroke="#181818" stroke-linecap="round" stroke-linejoin="round"/>
<path d="M420.814 291.095C420.322 293.783 420.922 296.135 422.158 296.363C423.394 296.591 424.81 294.611 425.302 291.935C425.794 289.259 425.206 286.883 423.958 286.655C422.71 286.427 421.318 288.419 420.814 291.095Z" stroke="#181818" stroke-linecap="round" stroke-linejoin="round"/>
<path d="M472.87 277.428C471.868 272.565 469.075 268.256 465.046 265.356C460.555 262.202 455.412 260.098 449.998 259.2C449.998 259.2 453.97 260.94 455.482 263.232C455.482 263.232 445.198 255.504 432.982 260.58C420.766 265.656 422.29 278.844 422.29 278.844L424.066 275.388C424.066 275.388 423.862 279.504 426.022 281.016C426.669 278.999 427.551 277.066 428.65 275.256C428.65 275.256 431.89 284.988 440.806 288.288C440.2 286.753 440.149 285.055 440.662 283.488C440.662 283.488 445.606 294.18 444.166 299.4L445.738 302.136C445.738 302.136 451.414 296.388 456.034 301.176C458.686 303.936 450.958 314.376 449.854 314.376L454.522 321.227C454.522 321.227 466.186 322.895 472.906 310.259C479.626 297.623 477.982 292.26 477.982 292.26C477.982 292.26 480.178 295.332 480.382 297.06C480.406 297.036 482.398 283.464 472.87 277.428Z" fill="#181818"/>
<path d="M445.426 303.348C445.426 303.348 449.026 291.252 456.682 295.512C464.338 299.772 458.878 306.228 456.13 308.712C453.382 311.196 451.33 315.708 449.542 315.708C447.754 315.708 447.358 313.512 447.358 313.512" fill="white"/>
<path d="M445.426 303.348C445.426 303.348 449.026 291.252 456.682 295.512C464.338 299.772 458.878 306.228 456.13 308.712C453.382 311.196 451.33 315.708 449.542 315.708C447.754 315.708 447.358 313.512 447.358 313.512" stroke="#181818" stroke-linecap="round" stroke-linejoin="round"/>
<path d="M425.302 291.936L446.662 296.364" stroke="#181818" stroke-linecap="round" stroke-linejoin="round"/>
</svg>
