<svg width="40" height="40" viewBox="0 0 40 40" fill="none" xmlns="http://www.w3.org/2000/svg">
<g filter="url(#filter0_d_163_374)">
<path d="M20 34C23.1645 34 26.2579 33.0616 28.8891 31.3035C31.5203 29.5454 33.5711 27.0466 34.7821 24.1229C35.9931 21.1993 36.3099 17.9823 35.6926 14.8786C35.0752 11.7749 33.5513 8.92394 31.3137 6.6863C29.0761 4.44866 26.2251 2.92481 23.1214 2.30744C20.0177 1.69008 16.8007 2.00693 13.8771 3.21793C10.9534 4.42894 8.45459 6.4797 6.69649 9.11088C4.93838 11.7421 4 14.8355 4 18C4 22.2435 5.68571 26.3131 8.68629 29.3137C11.6869 32.3143 15.7565 34 20 34Z" fill="white"/>
</g>
<mask id="path-2-inside-1_163_374" fill="white">
<path d="M24.5244 11.6016H15.4748C14.9777 11.6022 14.5011 11.8 14.1495 12.1515C13.798 12.503 13.6002 12.9796 13.5996 13.4768V22.5264C13.6 23.0236 13.7977 23.5003 14.1493 23.8519C14.5009 24.2034 14.9776 24.4011 15.4748 24.4016H24.5244C25.0216 24.4011 25.4983 24.2034 25.8499 23.8519C26.2015 23.5003 26.3992 23.0236 26.3996 22.5264V13.4768C26.3992 12.9796 26.2015 12.5028 25.8499 12.1513C25.4983 11.7997 25.0216 11.602 24.5244 11.6016ZM25.6492 22.5264C25.6488 22.8245 25.5301 23.1104 25.3193 23.3212C25.1084 23.5321 24.8226 23.6507 24.5244 23.6512H15.4748C15.1766 23.6507 14.8908 23.5321 14.6799 23.3212C14.4691 23.1104 14.3504 22.8245 14.35 22.5264V13.4768C14.3504 13.1786 14.4691 12.8927 14.6799 12.6819C14.8908 12.471 15.1766 12.3524 15.4748 12.352H24.5244C24.8226 12.3524 25.1084 12.471 25.3193 12.6819C25.5301 12.8927 25.6488 13.1786 25.6492 13.4768V22.5264Z"/>
</mask>
<path d="M24.5244 11.6016H15.4748C14.9777 11.6022 14.5011 11.8 14.1495 12.1515C13.798 12.503 13.6002 12.9796 13.5996 13.4768V22.5264C13.6 23.0236 13.7977 23.5003 14.1493 23.8519C14.5009 24.2034 14.9776 24.4011 15.4748 24.4016H24.5244C25.0216 24.4011 25.4983 24.2034 25.8499 23.8519C26.2015 23.5003 26.3992 23.0236 26.3996 22.5264V13.4768C26.3992 12.9796 26.2015 12.5028 25.8499 12.1513C25.4983 11.7997 25.0216 11.602 24.5244 11.6016ZM25.6492 22.5264C25.6488 22.8245 25.5301 23.1104 25.3193 23.3212C25.1084 23.5321 24.8226 23.6507 24.5244 23.6512H15.4748C15.1766 23.6507 14.8908 23.5321 14.6799 23.3212C14.4691 23.1104 14.3504 22.8245 14.35 22.5264V13.4768C14.3504 13.1786 14.4691 12.8927 14.6799 12.6819C14.8908 12.471 15.1766 12.3524 15.4748 12.352H24.5244C24.8226 12.3524 25.1084 12.471 25.3193 12.6819C25.5301 12.8927 25.6488 13.1786 25.6492 13.4768V22.5264Z" fill="#181818"/>
<path d="M24.5244 11.6016L24.5253 10.6016H24.5244V11.6016ZM15.4748 11.6016V10.6016L15.4735 10.6016L15.4748 11.6016ZM13.5996 13.4768L12.5996 13.4755V13.4768H13.5996ZM13.5996 22.5264H12.5996L12.5996 22.5272L13.5996 22.5264ZM15.4748 24.4016L15.474 25.4016H15.4748V24.4016ZM24.5244 24.4016V25.4016H24.5253L24.5244 24.4016ZM26.3996 22.5264L27.3996 22.5272V22.5264H26.3996ZM26.3996 13.4768H27.3996V13.4759L26.3996 13.4768ZM25.6492 22.5264L26.6492 22.5278V22.5264H25.6492ZM24.5244 23.6512V24.6512L24.5258 24.6512L24.5244 23.6512ZM15.4748 23.6512L15.4734 24.6512H15.4748V23.6512ZM14.35 22.5264H13.35L13.35 22.5278L14.35 22.5264ZM14.35 13.4768L13.35 13.4753V13.4768H14.35ZM15.4748 12.352V11.352L15.4734 11.352L15.4748 12.352ZM24.5244 12.352L24.5258 11.352H24.5244V12.352ZM25.6492 13.4768H26.6492L26.6492 13.4753L25.6492 13.4768ZM24.5244 10.6016H15.4748V12.6016H24.5244V10.6016ZM15.4735 10.6016C14.7116 10.6025 13.9812 10.9056 13.4424 11.4444L14.8567 12.8586C15.021 12.6943 15.2437 12.6019 15.4761 12.6016L15.4735 10.6016ZM13.4424 11.4444C12.9037 11.9831 12.6006 12.7136 12.5996 13.4755L14.5996 13.478C14.5999 13.2457 14.6923 13.0229 14.8567 12.8586L13.4424 11.4444ZM12.5996 13.4768V22.5264H14.5996V13.4768H12.5996ZM12.5996 22.5272C12.6003 23.2893 12.9033 24.0201 13.4422 24.559L14.8564 23.1448C14.6922 22.9805 14.5998 22.7578 14.5996 22.5255L12.5996 22.5272ZM13.4422 24.559C13.9811 25.0979 14.7118 25.4009 15.474 25.4016L15.4757 23.4016C15.2434 23.4014 15.0207 23.309 14.8564 23.1448L13.4422 24.559ZM15.4748 25.4016H24.5244V23.4016H15.4748V25.4016ZM24.5253 25.4016C25.2874 25.4009 26.0181 25.0979 26.557 24.559L25.1428 23.1448C24.9786 23.309 24.7558 23.4014 24.5236 23.4016L24.5253 25.4016ZM26.557 24.559C27.0959 24.0201 27.399 23.2893 27.3996 22.5272L25.3996 22.5255C25.3994 22.7578 25.3071 22.9805 25.1428 23.1448L26.557 24.559ZM27.3996 22.5264V13.4768H25.3996V22.5264H27.3996ZM27.3996 13.4759C27.399 12.7138 27.0959 11.9831 26.557 11.4442L25.1428 12.8584C25.3071 13.0226 25.3994 13.2453 25.3996 13.4776L27.3996 13.4759ZM26.557 11.4442C26.0181 10.9053 25.2874 10.6022 24.5253 10.6016L24.5236 12.6016C24.7558 12.6018 24.9786 12.6941 25.1428 12.8584L26.557 11.4442ZM24.6492 22.5249C24.6492 22.5584 24.6358 22.5905 24.6122 22.6141L26.0264 24.0284C26.4244 23.6303 26.6484 23.0907 26.6492 22.5278L24.6492 22.5249ZM24.6122 22.6141C24.5885 22.6378 24.5565 22.6511 24.523 22.6512L24.5258 24.6512C25.0887 24.6504 25.6284 24.4264 26.0264 24.0284L24.6122 22.6141ZM24.5244 22.6512H15.4748V24.6512H24.5244V22.6512ZM15.4762 22.6512C15.4428 22.6511 15.4107 22.6378 15.387 22.6141L13.9728 24.0284C14.3709 24.4264 14.9105 24.6504 15.4734 24.6512L15.4762 22.6512ZM15.387 22.6141C15.3634 22.5905 15.3501 22.5584 15.35 22.5249L13.35 22.5278C13.3508 23.0907 13.5748 23.6303 13.9728 24.0284L15.387 22.6141ZM15.35 22.5264V13.4768H13.35V22.5264H15.35ZM15.35 13.4782C15.3501 13.4447 15.3634 13.4126 15.387 13.389L13.9728 11.9748C13.5748 12.3728 13.3508 12.9124 13.35 13.4753L15.35 13.4782ZM15.387 13.389C15.4107 13.3653 15.4428 13.352 15.4762 13.352L15.4734 11.352C14.9105 11.3528 14.3709 11.5767 13.9728 11.9748L15.387 13.389ZM15.4748 13.352H24.5244V11.352H15.4748V13.352ZM24.523 13.352C24.5565 13.352 24.5885 13.3653 24.6122 13.389L26.0264 11.9748C25.6284 11.5767 25.0887 11.3528 24.5258 11.352L24.523 13.352ZM24.6122 13.389C24.6358 13.4126 24.6492 13.4447 24.6492 13.4782L26.6492 13.4753C26.6484 12.9124 26.4244 12.3728 26.0264 11.9748L24.6122 13.389ZM24.6492 13.4768V22.5264H26.6492V13.4768H24.6492Z" fill="#181818" mask="url(#path-2-inside-1_163_374)"/>
<path d="M23.9905 13.6681C24.0313 13.6402 24.078 13.626 24.1246 13.626C24.1871 13.6261 24.2495 13.6515 24.2975 13.7006C24.3459 13.7503 24.3752 13.8201 24.3753 13.8954L24.8753 13.8949H24.3753C24.3753 13.9508 24.3591 14.0044 24.33 14.049C24.301 14.0935 24.2611 14.1262 24.2167 14.1451C24.1725 14.1639 24.1245 14.1686 24.0784 14.1592C24.0322 14.1497 23.988 14.1262 23.9521 14.0894C23.9162 14.0526 23.8903 14.0041 23.8798 13.9497C23.8692 13.8951 23.8747 13.8387 23.8952 13.788C23.9156 13.7375 23.9494 13.6962 23.9905 13.6681Z" fill="#181818" stroke="#181818"/>
<mask id="path-5-inside-2_163_374" fill="white">
<path d="M19.9997 14.6338C19.3322 14.6338 18.6796 14.8314 18.1246 15.2016C17.5695 15.5718 17.1369 16.098 16.8814 16.7137C16.626 17.3294 16.5591 18.0068 16.6894 18.6604C16.8196 19.314 17.1411 19.9143 17.6131 20.3855C18.0851 20.8567 18.6865 21.1776 19.3412 21.3076C19.996 21.4376 20.6746 21.3709 21.2913 21.1159C21.9081 20.8609 22.4352 20.429 22.8061 19.8749C23.177 19.3209 23.3749 18.6694 23.3749 18.0031C23.3741 17.1097 23.0182 16.2532 22.3854 15.6216C21.7526 14.9899 20.8946 14.6346 19.9997 14.6338V14.6338ZM19.9997 20.6233C19.4806 20.6233 18.9731 20.4696 18.5414 20.1817C18.1098 19.8938 17.7734 19.4846 17.5747 19.0058C17.376 18.527 17.3241 18.0002 17.4253 17.4919C17.5266 16.9836 17.7766 16.5168 18.1437 16.1503C18.5108 15.7839 18.9785 15.5343 19.4876 15.4332C19.9968 15.3321 20.5246 15.384 21.0042 15.5823C21.4838 15.7806 21.8937 16.1165 22.1821 16.5474C22.4706 16.9783 22.6245 17.4848 22.6245 18.0031C22.6237 18.6977 22.3468 19.3637 21.8548 19.8549C21.3627 20.3461 20.6956 20.6224 19.9997 20.6233Z"/>
</mask>
<path d="M19.9997 14.6338C19.3322 14.6338 18.6796 14.8314 18.1246 15.2016C17.5695 15.5718 17.1369 16.098 16.8814 16.7137C16.626 17.3294 16.5591 18.0068 16.6894 18.6604C16.8196 19.314 17.1411 19.9143 17.6131 20.3855C18.0851 20.8567 18.6865 21.1776 19.3412 21.3076C19.996 21.4376 20.6746 21.3709 21.2913 21.1159C21.9081 20.8609 22.4352 20.429 22.8061 19.8749C23.177 19.3209 23.3749 18.6694 23.3749 18.0031C23.3741 17.1097 23.0182 16.2532 22.3854 15.6216C21.7526 14.9899 20.8946 14.6346 19.9997 14.6338V14.6338ZM19.9997 20.6233C19.4806 20.6233 18.9731 20.4696 18.5414 20.1817C18.1098 19.8938 17.7734 19.4846 17.5747 19.0058C17.376 18.527 17.3241 18.0002 17.4253 17.4919C17.5266 16.9836 17.7766 16.5168 18.1437 16.1503C18.5108 15.7839 18.9785 15.5343 19.4876 15.4332C19.9968 15.3321 20.5246 15.384 21.0042 15.5823C21.4838 15.7806 21.8937 16.1165 22.1821 16.5474C22.4706 16.9783 22.6245 17.4848 22.6245 18.0031C22.6237 18.6977 22.3468 19.3637 21.8548 19.8549C21.3627 20.3461 20.6956 20.6224 19.9997 20.6233Z" fill="#181818"/>
<path d="M19.9997 14.6338V15.6338H20.9997V14.6338H19.9997ZM23.3749 18.0031H24.3749L24.3749 18.0021L23.3749 18.0031ZM19.9997 14.6338L20.0007 13.6338L18.9997 13.6328V14.6338H19.9997ZM19.9997 20.6233V21.6233L20.0009 21.6233L19.9997 20.6233ZM22.6245 18.0031L23.6245 18.0043V18.0031H22.6245ZM19.9997 13.6338C19.1348 13.6338 18.2891 13.8898 17.5697 14.3697L18.6794 16.0335C19.0701 15.773 19.5295 15.6338 19.9997 15.6338V13.6338ZM17.5697 14.3697C16.8502 14.8496 16.2892 15.5319 15.9578 16.3304L17.8051 17.097C17.9846 16.6642 18.2888 16.2941 18.6794 16.0335L17.5697 14.3697ZM15.9578 16.3304C15.6264 17.129 15.5397 18.0079 15.7086 18.8558L17.6701 18.465C17.5786 18.0057 17.6255 17.5297 17.8051 17.097L15.9578 16.3304ZM15.7086 18.8558C15.8776 19.7037 16.2946 20.4823 16.9066 21.0932L18.3196 19.6778C17.9875 19.3463 17.7616 18.9242 17.6701 18.465L15.7086 18.8558ZM16.9066 21.0932C17.5186 21.7042 18.2981 22.12 19.1465 22.2885L19.536 20.3268C19.0749 20.2352 18.6516 20.0093 18.3196 19.6778L16.9066 21.0932ZM19.1465 22.2885C19.9948 22.4569 20.8742 22.3705 21.6734 22.04L20.9092 20.1918C20.475 20.3713 19.9971 20.4183 19.536 20.3268L19.1465 22.2885ZM21.6734 22.04C22.4727 21.7095 23.1561 21.1497 23.6371 20.4312L21.9751 19.3187C21.7143 19.7083 21.3434 20.0122 20.9092 20.1918L21.6734 22.04ZM23.6371 20.4312C24.1181 19.7126 24.3749 18.8676 24.3749 18.0031H22.3749C22.3749 18.4713 22.2358 18.9291 21.9751 19.3187L23.6371 20.4312ZM24.3749 18.0021C24.3738 16.8433 23.9122 15.7327 23.0919 14.9138L21.6789 16.3293C22.1242 16.7738 22.3743 17.3761 22.3749 18.004L24.3749 18.0021ZM23.0919 14.9138C22.2717 14.095 21.1599 13.6349 20.0007 13.6338L19.9988 15.6338C20.6293 15.6344 21.2336 15.8847 21.6789 16.3293L23.0919 14.9138ZM18.9997 14.6338V14.6338H20.9997V14.6338H18.9997ZM19.9997 19.6233C19.678 19.6233 19.3636 19.528 19.0963 19.3498L17.9866 21.0136C18.5826 21.4112 19.2832 21.6233 19.9997 21.6233V19.6233ZM19.0963 19.3498C18.8291 19.1715 18.6211 18.9184 18.4984 18.6225L16.6511 19.389C16.9256 20.0507 17.3905 20.616 17.9866 21.0136L19.0963 19.3498ZM18.4984 18.6225C18.3756 18.3267 18.3435 18.0013 18.4061 17.6873L16.4446 17.2965C16.3046 17.9991 16.3765 18.7273 16.6511 19.389L18.4984 18.6225ZM18.4061 17.6873C18.4686 17.3734 18.6231 17.0847 18.8502 16.858L17.4372 15.4426C16.9301 15.9488 16.5846 16.5939 16.4446 17.2965L18.4061 17.6873ZM18.8502 16.858C19.0773 16.6313 19.3669 16.4767 19.6824 16.4141L19.2929 14.4524C18.5901 14.5919 17.9443 14.9364 17.4372 15.4426L18.8502 16.858ZM19.6824 16.4141C19.9979 16.3514 20.325 16.3836 20.6221 16.5064L21.3863 14.6582C20.7242 14.3844 19.9957 14.3128 19.2929 14.4524L19.6824 16.4141ZM20.6221 16.5064C20.9192 16.6293 21.1728 16.8372 21.3511 17.1036L23.0132 15.9911C22.6147 15.3958 22.0484 14.932 21.3863 14.6582L20.6221 16.5064ZM21.3511 17.1036C21.5294 17.37 21.6245 17.683 21.6245 18.0031H23.6245C23.6245 17.2867 23.4117 16.5865 23.0132 15.9911L21.3511 17.1036ZM21.6245 18.0018C21.624 18.4311 21.4529 18.8431 21.1483 19.1472L22.5613 20.5626C23.2408 19.8843 23.6233 18.9643 23.6245 18.0043L21.6245 18.0018ZM21.1483 19.1472C20.8436 19.4513 20.4301 19.6227 19.9985 19.6233L20.0009 21.6233C20.961 21.6221 21.8818 21.2409 22.5613 20.5626L21.1483 19.1472Z" fill="#181818" mask="url(#path-5-inside-2_163_374)"/>
<defs>
<filter id="filter0_d_163_374" x="0" y="0" width="40" height="40" filterUnits="userSpaceOnUse" color-interpolation-filters="sRGB">
<feFlood flood-opacity="0" result="BackgroundImageFix"/>
<feColorMatrix in="SourceAlpha" type="matrix" values="0 0 0 0 0 0 0 0 0 0 0 0 0 0 0 0 0 0 127 0" result="hardAlpha"/>
<feOffset dy="2"/>
<feGaussianBlur stdDeviation="2"/>
<feComposite in2="hardAlpha" operator="out"/>
<feColorMatrix type="matrix" values="0 0 0 0 0 0 0 0 0 0 0 0 0 0 0 0 0 0 0.2 0"/>
<feBlend mode="normal" in2="BackgroundImageFix" result="effect1_dropShadow_163_374"/>
<feBlend mode="normal" in="SourceGraphic" in2="effect1_dropShadow_163_374" result="shape"/>
</filter>
</defs>
</svg>
