<svg width="12" height="12" viewBox="0 0 12 12" fill="none" xmlns="http://www.w3.org/2000/svg">
<path d="M11.7796 9.3999L9.04134 6.91027C8.91191 6.79263 8.74182 6.72988 8.56699 6.73529C8.39216 6.74069 8.22628 6.81382 8.10435 6.93923L6.49241 8.59697C6.10441 8.52287 5.32438 8.2797 4.52144 7.47879C3.7185 6.67518 3.47533 5.89313 3.40325 5.50783L5.05965 3.89523C5.18522 3.77339 5.25846 3.60748 5.26386 3.4326C5.26927 3.25773 5.20642 3.08761 5.08862 2.95825L2.59964 0.220734C2.48179 0.0909691 2.31799 0.0122571 2.14304 0.00131473C1.96808 -0.00962763 1.79575 0.0480617 1.66265 0.162131L0.200925 1.4157C0.0844657 1.53258 0.0149551 1.68814 0.00557879 1.85287C-0.00452532 2.02127 -0.197177 6.01034 2.89603 9.10486C5.59449 11.8026 8.97465 12 9.90558 12C10.0416 12 10.1252 11.996 10.1474 11.9946C10.3121 11.9854 10.4676 11.9156 10.5839 11.7986L11.8368 10.3362C11.9513 10.2035 12.0094 10.0313 11.9987 9.8564C11.988 9.68146 11.9094 9.51763 11.7796 9.3999V9.3999Z" fill="#7D7D7D"/>
</svg>
