<svg width="40" height="40" viewBox="0 0 40 40" fill="none" xmlns="http://www.w3.org/2000/svg">
<g filter="url(#filter0_d_163_368)">
<path d="M20 34C23.1645 34 26.2579 33.0616 28.8891 31.3035C31.5203 29.5454 33.5711 27.0466 34.7821 24.1229C35.9931 21.1993 36.3099 17.9823 35.6926 14.8786C35.0752 11.7749 33.5513 8.92394 31.3137 6.6863C29.0761 4.44866 26.2251 2.92481 23.1214 2.30744C20.0177 1.69008 16.8007 2.00693 13.8771 3.21793C10.9534 4.42894 8.45459 6.4797 6.69649 9.11088C4.93838 11.7421 4 14.8355 4 18C4 22.2435 5.68571 26.3131 8.68629 29.3137C11.6869 32.3143 15.7565 34 20 34Z" fill="white"/>
</g>
<path d="M16.4656 24.3996H13.8118V15.8538H16.4656V24.3996ZM15.1371 14.6881C14.2886 14.6881 13.6001 13.985 13.6001 13.1365C13.6001 12.7289 13.762 12.338 14.0503 12.0498C14.3385 11.7615 14.7294 11.5996 15.1371 11.5996C15.5447 11.5996 15.9356 11.7615 16.2239 12.0498C16.5121 12.338 16.674 12.7289 16.674 13.1365C16.674 13.985 15.9856 14.6881 15.1371 14.6881ZM26.3978 24.3996H23.7499V20.2396C23.7499 19.2481 23.7298 17.9768 22.3702 17.9768C20.9905 17.9768 20.7789 19.0538 20.7789 20.1683V24.3996H18.1278V15.8538H20.6728V17.0195H20.7098C21.0641 16.348 21.9295 15.6394 23.2206 15.6394C25.9064 15.6394 26.4001 17.4081 26.4001 19.7052V24.3996H26.3978Z" fill="#181818"/>
<defs>
<filter id="filter0_d_163_368" x="0" y="0" width="40" height="40" filterUnits="userSpaceOnUse" color-interpolation-filters="sRGB">
<feFlood flood-opacity="0" result="BackgroundImageFix"/>
<feColorMatrix in="SourceAlpha" type="matrix" values="0 0 0 0 0 0 0 0 0 0 0 0 0 0 0 0 0 0 127 0" result="hardAlpha"/>
<feOffset dy="2"/>
<feGaussianBlur stdDeviation="2"/>
<feComposite in2="hardAlpha" operator="out"/>
<feColorMatrix type="matrix" values="0 0 0 0 0 0 0 0 0 0 0 0 0 0 0 0 0 0 0.2 0"/>
<feBlend mode="normal" in2="BackgroundImageFix" result="effect1_dropShadow_163_368"/>
<feBlend mode="normal" in="SourceGraphic" in2="effect1_dropShadow_163_368" result="shape"/>
</filter>
</defs>
</svg>
