<svg width="10" height="13" viewBox="0 0 10 13" fill="none" xmlns="http://www.w3.org/2000/svg">
<path d="M4.99999 13C4.0978 12.222 3.26156 11.3692 2.49999 10.4503C1.35714 9.07043 6.2778e-07 7.01539 6.2778e-07 5.0571C-0.000495013 4.05699 0.292506 3.07921 0.841922 2.2475C1.39134 1.4158 2.17247 0.76755 3.08647 0.384803C4.00047 0.00205556 5.00624 -0.0979864 5.9765 0.0973378C6.94676 0.292662 7.83789 0.774572 8.53712 1.48208C9.00266 1.95061 9.37165 2.50782 9.62275 3.12147C9.87385 3.73513 10.0021 4.39303 9.99998 5.0571C9.99998 7.01539 8.64284 9.07043 7.49998 10.4503C6.73841 11.3692 5.90217 12.222 4.99999 13ZM4.99999 2.89086C4.43167 2.89086 3.88663 3.11909 3.48476 3.52534C3.0829 3.93159 2.85714 4.48258 2.85714 5.0571C2.85714 5.63163 3.0829 6.18262 3.48476 6.58887C3.88663 6.99512 4.43167 7.22335 4.99999 7.22335C5.56831 7.22335 6.11335 6.99512 6.51521 6.58887C6.91708 6.18262 7.14284 5.63163 7.14284 5.0571C7.14284 4.48258 6.91708 3.93159 6.51521 3.52534C6.11335 3.11909 5.56831 2.89086 4.99999 2.89086Z" fill="#7D7D7D"/>
</svg>
