<svg width="40" height="40" viewBox="0 0 40 40" fill="none" xmlns="http://www.w3.org/2000/svg">
<g filter="url(#filter0_d_163_365)">
<path d="M20 34C23.1645 34 26.2579 33.0616 28.8891 31.3035C31.5203 29.5454 33.5711 27.0466 34.7821 24.1229C35.9931 21.1993 36.3099 17.9823 35.6926 14.8786C35.0752 11.7749 33.5513 8.92394 31.3137 6.6863C29.0761 4.44866 26.2251 2.92481 23.1214 2.30744C20.0177 1.69008 16.8007 2.00693 13.8771 3.21793C10.9534 4.42894 8.45459 6.4797 6.69649 9.11088C4.93838 11.7421 4 14.8355 4 18C4 22.2435 5.68571 26.3131 8.68629 29.3137C11.6869 32.3143 15.7565 34 20 34Z" fill="white"/>
</g>
<path d="M20.0515 12.4004H20.1405C20.9626 12.4034 25.1278 12.4333 26.2509 12.7342C26.5904 12.8261 26.8998 13.0051 27.1481 13.2534C27.3964 13.5017 27.575 13.8107 27.666 14.1493C27.767 14.528 27.838 15.0292 27.886 15.5464L27.896 15.6501L27.918 15.9092L27.926 16.0128C27.991 16.9236 27.999 17.7767 28 17.963V18.0378C27.999 18.2311 27.99 19.1419 27.918 20.0906L27.91 20.1952L27.901 20.2989C27.851 20.8689 27.777 21.4349 27.666 21.8515C27.5753 22.1903 27.3968 22.4993 27.1484 22.7477C26.9001 22.996 26.5905 23.175 26.2509 23.2666C25.0908 23.5775 20.6815 23.5994 20.0705 23.6004H19.9285C19.6195 23.6004 18.3414 23.5944 17.0013 23.5486L16.8313 23.5426L16.7443 23.5386L16.5733 23.5316L16.4023 23.5247C15.2922 23.4758 14.2351 23.3971 13.7481 23.2656C13.4086 23.1741 13.0991 22.9953 12.8508 22.7471C12.6024 22.4989 12.4239 22.1901 12.333 21.8515C12.222 21.4359 12.148 20.8689 12.098 20.2989L12.09 20.1943L12.082 20.0906C12.0326 19.4154 12.0053 18.7387 12 18.0617L12 17.9391C12.002 17.7248 12.01 16.9844 12.064 16.1673L12.071 16.0646L12.074 16.0128L12.082 15.9092L12.104 15.6501L12.114 15.5464C12.162 15.0292 12.233 14.527 12.334 14.1493C12.4247 13.8105 12.6032 13.5015 12.8516 13.2531C13.0999 13.0047 13.4095 12.8258 13.7491 12.7342C14.2361 12.6047 15.2932 12.525 16.4033 12.4751L16.5733 12.4682L16.7453 12.4622L16.8313 12.4592L17.0023 12.4522C17.9541 12.4217 18.9062 12.4047 19.8585 12.4014H20.0515V12.4004ZM18.4004 15.5993V20.4005L22.5577 18.0009L18.4004 15.5993Z" fill="black"/>
<defs>
<filter id="filter0_d_163_365" x="0" y="0" width="40" height="40" filterUnits="userSpaceOnUse" color-interpolation-filters="sRGB">
<feFlood flood-opacity="0" result="BackgroundImageFix"/>
<feColorMatrix in="SourceAlpha" type="matrix" values="0 0 0 0 0 0 0 0 0 0 0 0 0 0 0 0 0 0 127 0" result="hardAlpha"/>
<feOffset dy="2"/>
<feGaussianBlur stdDeviation="2"/>
<feComposite in2="hardAlpha" operator="out"/>
<feColorMatrix type="matrix" values="0 0 0 0 0 0 0 0 0 0 0 0 0 0 0 0 0 0 0.2 0"/>
<feBlend mode="normal" in2="BackgroundImageFix" result="effect1_dropShadow_163_365"/>
<feBlend mode="normal" in="SourceGraphic" in2="effect1_dropShadow_163_365" result="shape"/>
</filter>
</defs>
</svg>
