<svg width="30" height="30" viewBox="0 0 30 30" fill="none" xmlns="http://www.w3.org/2000/svg">
<g clip-path="url(#clip0)">
<path d="M29.9945 29.9993V29.998H30.002V18.9955C30.002 13.613 28.8433 9.4668 22.5508 9.4668C19.5258 9.4668 17.4958 11.1268 16.667 12.7005H16.5795V9.9693H10.6133V29.998H16.8258V20.0805C16.8258 17.4693 17.3208 14.9443 20.5545 14.9443C23.7408 14.9443 23.7883 17.9243 23.7883 20.248V29.9993H29.9945Z" fill="black"/>
<path d="M0.492188 9.97168H6.71219V30.0004H0.492188V9.97168Z" fill="black"/>
<path d="M3.6025 0C1.61375 0 0 1.61375 0 3.6025C0 5.59125 1.61375 7.23875 3.6025 7.23875C5.59125 7.23875 7.205 5.59125 7.205 3.6025C7.20375 1.61375 5.59 0 3.6025 0V0Z" fill="black"/>
</g>
<defs>
<clipPath id="clip0">
<rect width="30" height="30" fill="white"/>
</clipPath>
</defs>
</svg>
