<svg width="16" height="20" viewBox="0 0 16 20" fill="none" xmlns="http://www.w3.org/2000/svg">
<path d="M4.57143 19.3327L1.14286 19.3327C0.839752 19.3327 0.549063 19.2433 0.334735 19.0842C0.120408 18.925 0 18.7092 0 18.4842L0 1.5145C0 1.28947 0.120408 1.07365 0.334735 0.914531C0.549063 0.755409 0.839752 0.666016 1.14286 0.666016L4.57143 0.666016C4.87453 0.666016 5.16522 0.755409 5.37955 0.914531C5.59388 1.07365 5.71428 1.28947 5.71428 1.5145L5.71428 18.4842C5.71428 18.7092 5.59388 18.925 5.37955 19.0842C5.16522 19.2433 4.87453 19.3327 4.57143 19.3327ZM14.8571 19.3327L11.4286 19.3327C11.1255 19.3327 10.8348 19.2433 10.6204 19.0842C10.4061 18.925 10.2857 18.7092 10.2857 18.4842L10.2857 1.5145C10.2857 1.28947 10.4061 1.07365 10.6204 0.914531C10.8348 0.755409 11.1255 0.666016 11.4286 0.666016L14.8571 0.666016C15.1602 0.666016 15.4509 0.755409 15.6653 0.914531C15.8796 1.07365 16 1.28947 16 1.5145L16 18.4842C16 18.7092 15.8796 18.925 15.6653 19.0842C15.4509 19.2433 15.1602 19.3327 14.8571 19.3327Z" fill="black"/>
</svg>
