<svg width="32" height="32" viewBox="0 0 32 32" fill="none" xmlns="http://www.w3.org/2000/svg">
<g clip-path="url(#clip0)">
<path d="M31.2924 7.9047L31.3324 8.16603C30.9457 6.79403 29.9017 5.73537 28.5751 5.35003L28.5471 5.34337C26.0524 4.66603 16.0137 4.66603 16.0137 4.66603C16.0137 4.66603 6.00039 4.6527 3.48039 5.34337C2.12839 5.73537 1.08306 6.79403 0.703059 8.13803L0.696392 8.16603C-0.235608 13.034 -0.242274 18.8834 0.737726 24.0954L0.696392 23.8314C1.08306 25.2034 2.12706 26.262 3.45373 26.6474L3.48173 26.654C5.97373 27.3327 16.0151 27.3327 16.0151 27.3327C16.0151 27.3327 26.0271 27.3327 28.5484 26.654C29.9017 26.262 30.9471 25.2034 31.3271 23.8594L31.3337 23.8314C31.7577 21.5674 32.0004 18.962 32.0004 16.3007C32.0004 16.2034 32.0004 16.1047 31.9991 16.006C32.0004 15.9154 32.0004 15.8074 32.0004 15.6994C32.0004 13.0367 31.7577 10.4314 31.2924 7.9047V7.9047ZM12.8111 20.8674V11.1434L21.1657 16.0127L12.8111 20.8674Z" fill="black"/>
</g>
<defs>
<clipPath id="clip0">
<rect width="32" height="32" fill="white"/>
</clipPath>
</defs>
</svg>
