<svg width="513" height="666" viewBox="0 0 513 666" fill="none" xmlns="http://www.w3.org/2000/svg">
<g clip-path="url(#clip0_73_1060)">
<g opacity="0.16">
<path d="M113.111 328.702L4.72935 468.376C2.88092 470.757 1.52969 473.484 0.755375 476.394C-0.0189421 479.305 -0.200666 482.34 0.220922 485.322C0.642511 488.304 1.65887 491.171 3.21006 493.755C4.76124 496.339 6.81582 498.587 9.25262 500.366L230.159 661.643C234.038 664.475 238.72 666.001 243.528 666.001H390.935C394.308 666.001 397.637 665.25 400.681 663.802C403.724 662.353 406.405 660.245 408.526 657.632L507.967 535.075C510.049 532.509 511.54 529.519 512.336 526.317C513.132 523.114 513.213 519.776 512.574 516.538L485.068 377.285C484.418 373.99 483.037 370.882 481.027 368.187C479.017 365.492 476.429 363.278 473.452 361.708L309.28 275.125C304.131 272.409 298.128 271.778 292.524 273.364L124.83 320.807C120.178 322.122 116.07 324.889 113.111 328.702Z" fill="white"/>
<path d="M338.467 359.584C248.243 355.355 225.687 438.429 225.687 480.494C221.927 512.869 250.897 574.316 338.467 578.941C426.038 583.566 446.603 520.137 450.584 480.494C454.564 440.851 451.247 364.87 338.467 359.584Z" fill="black"/>
<path d="M375.3 516.677C395.818 516.677 412.451 500.112 412.451 479.678C412.451 459.243 395.818 442.678 375.3 442.678C354.782 442.678 338.148 459.243 338.148 479.678C338.148 500.112 354.782 516.677 375.3 516.677Z" fill="white"/>
<path d="M391.968 113.641L425.802 338.945L439.071 344.231L399.266 89.8567C356.144 100.869 261.276 126.064 226.779 138.753C183.657 154.61 119.886 154.61 102.057 154.61C84.6052 154.61 68.8863 148.663 58.9351 147.342C50.9741 146.285 49.8685 153.949 50.3107 157.913C49.8685 161.22 54.2309 176.049 84.1448 183.681C115.242 191.606 301.08 142.272 391.968 113.641Z" fill="white"/>
<path d="M430.379 66.6841L458.243 356.076L473.501 369.29L444.974 50.827C414.678 51.9291 334.582 53.4702 256.565 50.827C178.548 48.1838 120.124 17.5706 100.662 2.59516C94.248 -0.487904 81.5557 -3.35153 82.0865 9.86344C82.7489 26.3809 105.019 41.4896 145.758 56.1614C178.914 68.1019 347.453 70.6479 430.379 66.6841Z" fill="white"/>
</g>
</g>
<defs>
<clipPath id="clip0_73_1060">
<rect width="513" height="666" fill="white"/>
</clipPath>
</defs>
</svg>
