<svg width="513" height="666" viewBox="0 0 513 666" fill="none" xmlns="http://www.w3.org/2000/svg">
<g clip-path="url(#clip0_187_410)">
<path d="M113.11 328.702L4.72886 468.376C2.88043 470.757 1.5292 473.484 0.754886 476.394C-0.0194303 479.305 -0.201155 482.34 0.220434 485.322C0.642023 488.304 1.65839 491.171 3.20957 493.755C4.76075 496.339 6.81534 498.587 9.25213 500.366L230.159 661.643C234.037 664.475 238.72 666.001 243.527 666.001H390.935C394.307 666.001 397.637 665.25 400.68 663.802C403.724 662.353 406.404 660.245 408.525 657.632L507.967 535.075C510.048 532.509 511.539 529.519 512.335 526.317C513.131 523.114 513.213 519.776 512.573 516.538L485.068 377.285C484.417 373.99 483.036 370.882 481.027 368.187C479.017 365.492 476.429 363.278 473.451 361.708L309.28 275.125C304.13 272.409 298.128 271.778 292.523 273.364L124.83 320.807C120.177 322.122 116.07 324.889 113.11 328.702Z" fill="#151515"/>
<path d="M338.467 359.584C248.243 355.355 225.686 438.429 225.686 480.494C221.926 512.869 250.896 574.316 338.467 578.941C426.037 583.566 446.603 520.137 450.583 480.494C454.564 440.851 451.247 364.87 338.467 359.584Z" fill="white"/>
<path d="M375.3 516.677C395.818 516.677 412.451 500.112 412.451 479.678C412.451 459.243 395.818 442.678 375.3 442.678C354.782 442.678 338.148 459.243 338.148 479.678C338.148 500.112 354.782 516.677 375.3 516.677Z" fill="#151515"/>
<path d="M391.968 113.641L425.802 338.945L439.071 344.231L399.266 89.8567C356.144 100.869 261.276 126.064 226.779 138.753C183.657 154.61 119.886 154.61 102.057 154.61C84.6052 154.61 68.8863 148.663 58.9351 147.342C50.9741 146.285 49.8685 153.949 50.3107 157.913C49.8685 161.22 54.2309 176.049 84.1448 183.681C115.242 191.606 301.08 142.272 391.968 113.641Z" fill="#151515"/>
<path d="M430.378 66.6841L458.242 356.076L473.5 369.29L444.973 50.827C414.677 51.9291 334.581 53.4702 256.564 50.827C178.547 48.1838 120.123 17.5706 100.661 2.59516C94.247 -0.487904 81.5547 -3.35153 82.0855 9.86344C82.7479 26.3809 105.018 41.4896 145.757 56.1614C178.913 68.1019 347.452 70.6479 430.378 66.6841Z" fill="#151515"/>
</g>
<defs>
<clipPath id="clip0_187_410">
<rect width="513" height="666" fill="white"/>
</clipPath>
</defs>
</svg>
